<svg width="584" height="612" viewBox="0 0 584 612" fill="none" xmlns="http://www.w3.org/2000/svg">
<path fill-rule="evenodd" clip-rule="evenodd" d="M283.824 3.32108C337.722 -11.9425 391.364 28.8406 440.435 55.8579C490.279 83.301 545.867 110.276 570.895 161.376C595.62 211.856 575.832 270.963 573.295 327.116C570.872 380.718 580.774 436.68 556.296 484.428C531.392 533.007 489.237 576.34 437.15 592.684C386.997 608.422 336.327 567.384 283.824 569.925C227.415 572.655 175.831 624 121.683 607.952C67.3814 591.858 24.6445 541.015 5.92272 487.562C-12.1681 435.911 16.3022 381.392 23.3213 327.116C29.4003 280.109 15.8962 226.729 44.5382 188.964C72.9954 151.443 134.022 160.962 171.229 132.096C217.061 96.5389 228.012 19.127 283.824 3.32108Z" fill="#EEE0DB" fill-opacity="0.7"/>
</svg>
