<svg width="689" height="663" viewBox="0 0 689 663" fill="none" xmlns="http://www.w3.org/2000/svg">
<path fill-rule="evenodd" clip-rule="evenodd" d="M348.724 3.59092C398.11 17.5687 414.959 80.4856 455.897 111.445C487.676 135.477 527.998 142.652 561.376 164.408C604.354 192.42 660.682 211.045 680.99 258.155C700.897 304.333 673.267 356.624 665.666 406.333C657.57 459.28 675.007 526.831 634.541 561.924C591.511 599.241 520.474 560.222 466.669 578.909C420.811 594.835 396.864 654.934 348.724 661.189C300.991 667.392 251.117 643.46 215.032 611.607C180.436 581.068 187.566 520.943 153.986 489.291C112.611 450.292 25.6219 465.256 3.98462 412.677C-16.0009 364.112 44.749 317.983 63.2658 268.839C79.351 226.148 81.99 179.292 106.434 140.773C132.124 100.291 166.002 64.8266 207.724 41.2037C250.591 16.9329 301.325 -9.82449 348.724 3.59092Z" fill="#EEE0DB" fill-opacity="0.7"/>
</svg>
